<svg width="264" height="80" viewBox="0 0 264 80" fill="none" xmlns="http://www.w3.org/2000/svg">
<path d="M11.5742 45.5312C11.5742 46.3776 11.5417 47.7122 11.4766 49.5352C11.4766 51.3581 11.444 53.4089 11.3789 55.6875C11.3138 57.9661 11.2161 60.3424 11.0859 62.8164C11.0208 65.2253 10.8906 67.4388 10.6953 69.457C10.5 71.4102 10.2721 73.0378 10.0117 74.3398C9.81641 75.6419 9.55599 76.293 9.23047 76.293C8.25391 76.293 7.3099 75.6094 6.39844 74.2422C5.55208 72.8099 4.67318 71.2799 3.76172 69.6523C3.56641 69.2617 3.33854 68.1224 3.07812 66.2344C2.88281 64.2812 2.65495 61.8398 2.39453 58.9102C2.19922 55.9805 2.00391 52.7253 1.80859 49.1445C1.61328 45.5638 1.41797 41.918 1.22266 38.207C1.02734 34.4961 0.864583 30.8503 0.734375 27.2695C0.669271 23.6888 0.604167 20.4661 0.539062 17.6016C0.473958 14.737 0.473958 12.3607 0.539062 10.4727C0.604167 8.51953 0.734375 7.38021 0.929688 7.05469C1.1901 6.59896 2.10156 6.27344 3.66406 6.07812C5.22656 5.81771 7.11458 5.6875 9.32812 5.6875C11.6068 5.6875 14.0482 5.7526 16.6523 5.88281C19.2565 6.01302 21.6654 6.20833 23.8789 6.46875C26.1576 6.66406 28.0456 6.89193 29.543 7.15234C31.1055 7.41276 31.9844 7.64062 32.1797 7.83594C32.4401 8.09635 32.4727 8.8125 32.2773 9.98438C32.1471 11.0911 31.8867 12.3281 31.4961 13.6953C31.1706 14.9974 30.7474 16.2344 30.2266 17.4062C29.7708 18.5781 29.3802 19.3268 29.0547 19.6523C28.7292 19.9779 27.1992 19.9453 24.4648 19.5547C21.7956 19.1641 17.4987 18.7083 11.5742 18.1875V34.4961C16.1315 34.8867 19.6797 35.2448 22.2188 35.5703C24.8229 35.8958 26.1901 36.1237 26.3203 36.2539C26.5807 36.5143 26.6784 37.0352 26.6133 37.8164C26.5482 38.5977 26.3854 39.444 26.125 40.3555C25.8646 41.2018 25.5391 42.0156 25.1484 42.7969C24.7578 43.513 24.3672 44.0013 23.9766 44.2617C23.7812 44.3919 22.6094 44.5872 20.4609 44.8477C18.3776 45.1081 15.4154 45.3359 11.5742 45.5312ZM71.8906 0.804688C72.0859 1.0651 72.3138 2.39974 72.5742 4.80859C72.8997 7.15234 73.2253 10.082 73.5508 13.5977C73.9414 17.1133 74.332 20.9544 74.7227 25.1211C75.1133 29.2227 75.4714 33.194 75.7969 37.0352C76.1224 40.8112 76.4154 44.1966 76.6758 47.1914C76.9362 50.1211 77.1315 52.1719 77.2617 53.3438C77.457 55.1016 77.75 57.25 78.1406 59.7891C78.5964 62.3281 79.0195 64.8346 79.4102 67.3086C79.8659 69.7174 80.224 71.8333 80.4844 73.6562C80.7448 75.4792 80.7773 76.5534 80.582 76.8789C80.3867 77.2044 79.7357 77.1719 78.6289 76.7812C77.5221 76.3906 76.3177 75.8372 75.0156 75.1211C73.7135 74.4049 72.4766 73.6237 71.3047 72.7773C70.1979 71.931 69.4818 71.2148 69.1562 70.6289C68.8307 69.9779 68.4727 68.9036 68.082 67.4062C67.6914 65.8438 67.2682 63.793 66.8125 61.2539C65.9661 62.8164 65.0221 64.4115 63.9805 66.0391C62.9388 67.6667 61.9297 69.1641 60.9531 70.5312C59.9766 71.8984 59.0651 73.0378 58.2188 73.9492C57.4375 74.7956 56.8516 75.1862 56.4609 75.1211C55.8099 75.056 54.8008 74.2096 53.4336 72.582C52.1315 70.8893 50.7969 69.0013 49.4297 66.918C48.0625 64.7695 46.8255 62.7513 45.7188 60.8633C44.6771 58.9102 44.0911 57.6081 43.9609 56.957C43.8958 56.5664 43.8633 55.6875 43.8633 54.3203C43.8633 52.888 43.8633 51.1953 43.8633 49.2422C43.9284 47.2891 43.9935 45.1732 44.0586 42.8945C44.1888 40.5508 44.2865 38.2721 44.3516 36.0586C44.4818 33.7799 44.5794 31.6315 44.6445 29.6133C44.7747 27.5951 44.9049 25.9349 45.0352 24.6328C45.1654 22.6146 45.3281 20.5312 45.5234 18.3828C45.7839 16.1693 46.0117 14.1185 46.207 12.2305C46.4674 10.3424 46.6953 8.7474 46.8906 7.44531C47.151 6.07812 47.3789 5.23177 47.5742 4.90625C47.7044 4.64583 48.0951 4.48307 48.7461 4.41797C49.4622 4.35286 50.2435 4.41797 51.0898 4.61328C51.9362 4.74349 52.7174 5.00391 53.4336 5.39453C54.1497 5.72005 54.638 6.14323 54.8984 6.66406C55.0286 6.98958 55.0938 8.29167 55.0938 10.5703C55.1589 12.7839 55.1914 15.4531 55.1914 18.5781C55.1914 21.7031 55.1589 25.0885 55.0938 28.7344C55.0938 32.3151 55.0612 35.7005 54.9961 38.8906C54.931 42.0807 54.8659 44.8151 54.8008 47.0938C54.8008 49.3073 54.8008 50.6094 54.8008 51C54.8008 51.7161 55.2891 52.8555 56.2656 54.418C57.3073 55.9154 58.2513 57.7383 59.0977 59.8867L65.25 52.9531C65.1849 51.1302 65.1198 48.7865 65.0547 45.9219C65.0547 43.0573 65.0221 40.0299 64.957 36.8398C64.8919 33.5846 64.8268 30.3294 64.7617 27.0742C64.7617 23.7539 64.7617 20.7266 64.7617 17.9922C64.7617 15.2578 64.7617 13.0117 64.7617 11.2539C64.8268 9.43099 64.8919 8.38932 64.957 8.12891C65.1523 7.60807 65.543 6.85938 66.1289 5.88281C66.7799 4.84115 67.4635 3.89714 68.1797 3.05078C68.8958 2.13932 69.612 1.42318 70.3281 0.902344C71.0443 0.38151 71.5651 0.348958 71.8906 0.804688ZM119.902 15.2578C118.796 15.3229 117.689 15.3555 116.582 15.3555C115.54 15.2904 114.564 15.2578 113.652 15.2578C112.611 15.2578 111.634 15.2253 110.723 15.1602C110.853 18.6107 110.885 22.6471 110.82 27.2695C110.82 31.8268 110.755 36.5143 110.625 41.332C110.56 46.1497 110.43 50.8698 110.234 55.4922C110.104 60.0495 109.941 64.0859 109.746 67.6016C112.22 67.5365 114.401 67.5365 116.289 67.6016C118.177 67.6667 119.186 67.7643 119.316 67.8945C119.447 68.0898 119.447 68.7409 119.316 69.8477C119.186 70.8893 118.991 72.0612 118.73 73.3633C118.47 74.6003 118.21 75.7396 117.949 76.7812C117.689 77.888 117.493 78.5716 117.363 78.832C115.54 78.8971 113.848 78.8971 112.285 78.832C110.788 78.832 109.486 78.7669 108.379 78.6367C107.077 78.5716 105.905 78.474 104.863 78.3438C103.822 78.1484 102.715 77.9206 101.543 77.6602C100.566 77.3997 99.4271 77.0742 98.125 76.6836C96.888 76.293 95.6185 75.8047 94.3164 75.2188C94.056 75.0885 93.7305 74.7305 93.3398 74.1445C93.0143 73.5586 92.6562 72.9401 92.2656 72.2891C91.9401 71.5729 91.6797 70.8893 91.4844 70.2383C91.224 69.5872 91.0938 69.1315 91.0938 68.8711C91.0938 68.806 91.3867 68.7409 91.9727 68.6758C92.5586 68.5456 93.3724 68.4479 94.4141 68.3828C95.4557 68.2526 96.6276 68.1549 97.9297 68.0898C99.2318 67.9596 100.632 67.862 102.129 67.7969C101.999 65.9089 101.803 63.4349 101.543 60.375C101.348 57.25 101.12 53.8971 100.859 50.3164C100.664 46.6706 100.436 42.9596 100.176 39.1836C99.9805 35.3424 99.8177 31.7943 99.6875 28.5391C99.5573 25.2188 99.4922 22.3216 99.4922 19.8477C99.4922 17.3737 99.5898 15.6484 99.7852 14.6719C99.8503 14.5417 99.8828 14.444 99.8828 14.3789C99.8828 14.2487 99.9154 14.1185 99.9805 13.9883L97.2461 13.3047C96.4648 13.1094 95.6185 12.8815 94.707 12.6211C93.7956 12.3607 92.8841 12.0677 91.9727 11.7422C91.7122 11.612 91.3867 11.2539 90.9961 10.668C90.5404 10.082 90.1172 9.43099 89.7266 8.71484C89.2708 7.9987 88.9128 7.34766 88.6523 6.76172C88.3268 6.11068 88.1641 5.65495 88.1641 5.39453C88.1641 5.26432 89.0104 5.13411 90.7031 5.00391C92.3307 4.80859 94.3815 4.64583 96.8555 4.51562C99.3294 4.38542 101.999 4.28776 104.863 4.22266C107.793 4.15755 110.495 4.125 112.969 4.125C115.508 4.125 117.624 4.15755 119.316 4.22266C121.074 4.22266 122.018 4.28776 122.148 4.41797C122.344 4.61328 122.344 5.26432 122.148 6.37109C122.018 7.41276 121.79 8.58464 121.465 9.88672C121.204 11.1237 120.911 12.2956 120.586 13.4023C120.326 14.444 120.098 15.0625 119.902 15.2578ZM165.277 5.88281C165.277 6.01302 165.049 6.79427 164.594 8.22656C164.203 9.59375 163.65 11.3841 162.934 13.5977C162.217 15.7461 161.371 18.1875 160.395 20.9219C159.483 23.6562 158.507 26.4883 157.465 29.418C156.423 32.2826 155.349 35.1146 154.242 37.9141C153.201 40.7135 152.224 43.2201 151.312 45.4336C151.182 49.9258 151.02 54.125 150.824 58.0312C150.629 61.9375 150.434 65.3555 150.238 68.2852C150.043 71.2148 149.848 73.5586 149.652 75.3164C149.457 77.0091 149.294 77.888 149.164 77.9531C148.839 78.2135 148.318 78.1159 147.602 77.6602C146.885 77.2695 146.137 76.7161 145.355 76C144.639 75.2839 143.956 74.5026 143.305 73.6562C142.719 72.8099 142.328 72.0938 142.133 71.5078C142.068 71.2474 141.97 70.4336 141.84 69.0664C141.71 67.6341 141.547 65.7461 141.352 63.4023C141.156 60.9935 140.928 58.194 140.668 55.0039C140.473 51.8138 140.277 48.2982 140.082 44.457C138.845 41.7227 137.543 38.5 136.176 34.7891C135.004 31.599 133.669 27.7253 132.172 23.168C130.74 18.6107 129.275 13.3698 127.777 7.44531C127.777 6.85938 128.135 6.27344 128.852 5.6875C129.568 5.03646 130.447 4.48307 131.488 4.02734C132.53 3.57161 133.637 3.21354 134.809 2.95312C135.98 2.69271 137.022 2.66016 137.934 2.85547C138.194 3.24609 138.682 4.74349 139.398 7.34766C139.659 8.45443 139.984 9.85417 140.375 11.5469C140.831 13.1745 141.319 15.2253 141.84 17.6992C142.361 20.1081 142.947 22.9401 143.598 26.1953C144.314 29.4505 145.128 33.2266 146.039 37.5234C147.016 33.3568 147.895 29.6784 148.676 26.4883C149.457 23.2982 150.141 20.5312 150.727 18.1875C151.378 15.7786 151.931 13.7604 152.387 12.1328C152.908 10.4401 153.331 9.04036 153.656 7.93359C154.438 5.32943 155.056 3.79948 155.512 3.34375C155.967 3.08333 156.716 2.98568 157.758 3.05078C158.865 3.05078 159.939 3.21354 160.98 3.53906C162.087 3.79948 163.064 4.15755 163.91 4.61328C164.757 5.00391 165.212 5.42708 165.277 5.88281ZM176.277 13.1094C176.603 12.5234 177.286 11.7747 178.328 10.8633C179.37 9.88672 180.607 8.91016 182.039 7.93359C183.536 6.95703 185.132 6.07812 186.824 5.29688C188.517 4.45052 190.21 3.89714 191.902 3.63672C193.66 3.3112 195.288 3.3763 196.785 3.83203C198.348 4.22266 199.682 5.13411 200.789 6.56641C201.375 7.28255 201.928 8.71484 202.449 10.8633C202.97 13.0117 203.458 15.6159 203.914 18.6758C204.435 21.6706 204.891 25.0234 205.281 28.7344C205.672 32.3802 205.997 36.1237 206.258 39.9648C206.518 43.7409 206.681 47.4844 206.746 51.1953C206.876 54.8411 206.876 58.2266 206.746 61.3516C206.681 64.4115 206.486 67.0482 206.16 69.2617C205.9 71.4102 205.477 72.9076 204.891 73.7539C203.719 75.4466 201.896 76.5859 199.422 77.1719C196.948 77.7578 194.344 77.7578 191.609 77.1719C188.875 76.651 186.271 75.5443 183.797 73.8516C181.323 72.1589 179.5 69.8802 178.328 67.0156C177.547 65.1276 176.896 62.556 176.375 59.3008C175.919 56.0456 175.561 52.5299 175.301 48.7539C175.04 44.9128 174.878 41.0065 174.812 37.0352C174.812 33.0638 174.845 29.418 174.91 26.0977C175.04 22.7122 175.203 19.8477 175.398 17.5039C175.659 15.1602 175.952 13.6953 176.277 13.1094ZM195.418 62.6211C195.809 62.2305 196.069 61.1888 196.199 59.4961C196.395 57.7383 196.492 55.6875 196.492 53.3438C196.557 50.9349 196.557 48.3958 196.492 45.7266C196.492 43.0573 196.492 40.5833 196.492 38.3047C196.492 32.5104 196.297 28.0182 195.906 24.8281C195.516 21.638 195.06 19.2617 194.539 17.6992C193.953 15.8763 193.302 14.737 192.586 14.2812C191.609 14.4766 190.796 14.8021 190.145 15.2578C189.493 15.6484 188.973 16.1042 188.582 16.625C188.126 17.2109 187.768 17.8294 187.508 18.4805C187.312 19.0664 187.085 20.2057 186.824 21.8984C186.629 23.5911 186.434 25.6094 186.238 27.9531C186.043 30.2318 185.848 32.7383 185.652 35.4727C185.522 38.1419 185.392 40.7786 185.262 43.3828C185.197 45.987 185.132 48.4609 185.066 50.8047C185.066 53.0833 185.099 54.9714 185.164 56.4688C185.294 58.7474 185.815 60.4076 186.727 61.4492C187.703 62.4909 188.745 63.1745 189.852 63.5C190.958 63.7604 192.033 63.7604 193.074 63.5C194.181 63.2396 194.962 62.9466 195.418 62.6211ZM262.961 48.7539C263.091 49.0143 263.091 49.7305 262.961 50.9023C262.831 52.0091 262.603 53.2135 262.277 54.5156C262.017 55.8177 261.724 57.0547 261.398 58.2266C261.138 59.3333 260.943 59.9844 260.812 60.1797C260.487 60.1797 260.129 60.1797 259.738 60.1797C259.413 60.1146 259.087 60.082 258.762 60.082C258.436 60.082 258.078 60.0495 257.688 59.9844C257.492 62.7188 257.264 65.2904 257.004 67.6992C256.743 70.043 256.483 72.0612 256.223 73.7539C255.962 75.4466 255.734 76.7812 255.539 77.7578C255.344 78.7995 255.148 79.3203 254.953 79.3203C254.432 79.4505 253.846 79.2227 253.195 78.6367C252.609 78.1159 252.023 77.4648 251.438 76.6836C250.852 75.9023 250.331 75.0885 249.875 74.2422C249.419 73.3307 249.159 72.5495 249.094 71.8984C249.029 70.5964 248.964 69.2292 248.898 67.7969C248.898 66.2995 248.866 64.9323 248.801 63.6953C248.736 62.263 248.703 60.8307 248.703 59.3984C247.466 59.2682 246.262 59.1706 245.09 59.1055C243.918 58.9753 242.746 58.8451 241.574 58.7148C240.988 58.5846 240.402 58.5195 239.816 58.5195C239.23 58.4544 238.677 58.3568 238.156 58.2266C238.026 61.2214 237.896 63.9883 237.766 66.5273C237.635 69.0664 237.473 71.2799 237.277 73.168C237.147 75.056 236.984 76.5208 236.789 77.5625C236.659 78.6693 236.496 79.2552 236.301 79.3203C235.78 79.3854 235.161 79.1576 234.445 78.6367C233.729 78.1159 233.046 77.4648 232.395 76.6836C231.809 75.9023 231.255 75.0885 230.734 74.2422C230.279 73.3958 230.018 72.6471 229.953 71.9961C229.823 70.3034 229.693 68.5781 229.562 66.8203C229.432 64.9974 229.302 63.3372 229.172 61.8398C229.042 60.082 228.911 58.3568 228.781 56.6641C228.26 56.599 227.74 56.5013 227.219 56.3711C226.763 56.2409 226.275 56.1432 225.754 56.0781C225.298 56.013 224.875 55.9154 224.484 55.7852C224.224 55.6549 223.866 55.3945 223.41 55.0039C222.954 54.5482 222.499 54.0599 222.043 53.5391C221.587 53.0182 221.197 52.5299 220.871 52.0742C220.546 51.5534 220.383 51.1628 220.383 50.9023C220.383 50.7721 221.099 50.6094 222.531 50.4141C224.029 50.2188 225.982 50.056 228.391 49.9258C228.13 46.1497 227.87 42.3086 227.609 38.4023C227.414 34.431 227.251 30.7526 227.121 27.3672C226.991 23.9167 226.926 20.9219 226.926 18.3828C226.926 15.7786 227.023 13.9883 227.219 13.0117C227.479 11.6445 228.098 10.3424 229.074 9.10547C230.116 7.80339 231.223 6.66406 232.395 5.6875C233.566 4.71094 234.673 3.96224 235.715 3.44141C236.757 2.92057 237.44 2.75781 237.766 2.95312C237.961 3.14844 238.124 3.92969 238.254 5.29688C238.449 6.66406 238.579 8.48698 238.645 10.7656C238.775 13.0443 238.84 15.681 238.84 18.6758C238.84 21.6706 238.84 24.8607 238.84 28.2461C238.84 31.5664 238.775 35.0495 238.645 38.6953C238.579 42.276 238.514 45.8242 238.449 49.3398C240.142 49.2096 241.802 49.112 243.43 49.0469C245.122 48.9818 246.783 48.8841 248.41 48.7539C248.345 45.043 248.28 41.2669 248.215 37.4258C248.215 33.5846 248.215 30.0039 248.215 26.6836C248.215 23.3633 248.28 20.4661 248.41 17.9922C248.54 15.5182 248.703 13.793 248.898 12.8164C249.224 11.4492 249.908 10.1471 250.949 8.91016C252.056 7.67318 253.195 6.59896 254.367 5.6875C255.604 4.71094 256.743 3.99479 257.785 3.53906C258.892 3.08333 259.608 2.98568 259.934 3.24609C260.259 3.44141 260.454 4.97135 260.52 7.83594C260.585 10.6354 260.52 14.1836 260.324 18.4805C260.194 22.7773 259.966 27.5951 259.641 32.9336C259.38 38.207 259.055 43.4154 258.664 48.5586C261.268 48.5586 262.701 48.6237 262.961 48.7539Z" fill="white"/>
</svg>
